<?xml version="1.0" encoding="UTF-8"?><svg id="alt_favicon" xmlns="http://www.w3.org/2000/svg" viewBox="0 0 32 32"><defs><style>.cls-1{fill:#333;}.cls-1,.cls-2{stroke-width:0px;}.cls-2{fill:#fbb03e;}</style></defs><path class="cls-1" d="M14.71,20.38c-2.33.07-2.67.32-3.35,2.37-.07-2.15-.34-2.47-2.56-3.09,2.33-.07,2.67-.32,3.35-2.37.07,2.15.34,2.47,2.56,3.09Z"/><path class="cls-1" d="M22.56,21.22c-2.33.08-2.67.32-3.36,2.38-.06-2.15-.33-2.47-2.56-3.09,2.33-.07,2.68-.32,3.36-2.37.07,2.15.33,2.46,2.56,3.09Z"/><path class="cls-1" d="M31.97,19.09c-.24-.39-.66-.63-1.11-.85-1.28-.65-2.7-1.04-4.13-1.41-.88-.23-1.75-.46-2.64-.69-.04-.02-.08-.03-.13-.04-.18-.04-.27-.13-.3-.28-.05-.26-.08-.52-.18-.76-.06-.09-.08-.13-.07-.21-.11-.24-.27-.48-.45-.68-.11-.12-.61-.49-.54-.61.31-.51,1.07-.74,1.38-1.25.15-.25.13-.47.07-.72-.47-2.17-2.21-3.07-3.44-4.29-.58-.52-2.11-1.06-2.35-1.82-.11-.53-.21-1.11-.07-2,.11-.7.77-1.13,1.56-1.45,2.14-.65,5.33,2.37,5.38,6.1.28-1.54.34-3-.2-4.22-.17-.34-.38-.67-.62-1-.22-.28-.45-.56-.69-.84-.25-.29-.54-.55-.83-.79-.76-.58-1.68-.98-2.8-1.15-1.26-.19-2.44-.11-3.43.4-.22.11-.44.25-.65.42-1.06.83-1.94,1.77-2.39,2.93-.46,1.16-.42,1.74-.9,2.9-.05.07,0,.18.03.26.32.55.66,1.08.98,1.64.05.07.06.19,0,.27-1.67.88-3.14,2.08-4.46,3.49-.62.39-.64.27-.4.71,0,.04.04.05.04.07t0,0s0,.05.04.11c.11.21.18.44.2.66.02.26-.1.33-.44.32-1.26,0-2.53-.02-3.79,0-1.26.02-2.51.11-3.7.42-.08.02-.16.04-.23.07-.18.07-.35.15-.51.24-.23.13-.27.4-.1.58.13.13.28.26.44.36.03.03.06.05.09.06,0,0,0,0,0,0,.82.49,2.68,1.11,2.68,1.11.28.08.56.18.86.26.24.06.49.13.75.19-.21.74-.76,2.39-1.08,3.11-.37.8.18,1.69.82,1.66.9-.04,1.5-.92.63-1.91-.78-.88-.19-2.25.11-2.74.07.02.16.04.24.06.6.15,1.23.3,1.89.44-.18,1.56.14,7.74.29,7.74,0,.15.2.23.33.13l.52-.38c.12-.1.32-.05.38.08l1.26,2.65c.2.42.91.42,1.09,0,.08-.19.29-.3.48-.32.27,0,.54.11.63.37l1.09,3.33c.06.19.34.21.44.05l2.05-3.34c.13-.21.36-.32.58-.31.22,0,.45.11.58.34.22.41.8.46,1.11.11l1.81-2.15c.11-.13.36-.1.42.06.06.27.16.57.27.89.06.03.12.02.18-.03.1,0,2.63-6.18,2.81-7.41.43,0,.86,0,1.3,0,.09,0,.18,0,.27,0-.26,1.57-.74,4.14-1.38,5.67-.54,1.29-.04,1.71.22,1.84.36.19.74.22,1.07.07.3-.13,1.03-.47.2-1.6-.73-.93-.1-4.09.36-5.99.26,0,.51,0,.77,0,.44,0,.89-.02,1.33-.04.13,1.16.19,2.59-.08,3.62-.22.77-.13,1.19.15,1.47.42.42,1.23.36,1.59-.11.22-.29.36-.56-.45-1.43-.76-.83-.85-2.33-.78-3.56.4-.03.79-.04,1.19-.07.4-.03.79-.05,1.19-.1.49-.08.9-.21,1.13-.45.07-.09.09-.19.04-.29ZM11.36,22.75c-.07-2.15-.34-2.47-2.56-3.09,2.33-.07,2.67-.32,3.35-2.37.07,2.15.34,2.47,2.56,3.09-2.33.07-2.67.32-3.35,2.37ZM19.2,23.6c-.06-2.15-.33-2.47-2.56-3.09,2.33-.07,2.68-.32,3.36-2.37.07,2.15.33,2.46,2.56,3.09-2.33.08-2.67.32-3.36,2.38Z"/><path class="cls-2" d="M20,18.14c-.68,2.05-1.03,2.3-3.36,2.37,2.23.63,2.49.95,2.56,3.09.69-2.06,1.03-2.3,3.36-2.38-2.23-.63-2.48-.94-2.56-3.09Z"/><path class="cls-2" d="M12.15,17.29c-.68,2.05-1.02,2.3-3.35,2.37,2.22.63,2.48.95,2.56,3.09.68-2.05,1.02-2.3,3.35-2.37-2.22-.63-2.48-.95-2.56-3.09Z"/></svg>