<?xml version="1.0" encoding="UTF-8"?><svg id="logo" xmlns="http://www.w3.org/2000/svg" viewBox="0 0 32 32"><defs><style>.cls-1{fill:#fbb03e;}.cls-1,.cls-2{stroke-width:0px;}.cls-2{fill:#ebeced;}</style></defs><path class="cls-1" d="m14.92,19.81c-1.94.06-2.23.28-2.8,2.07-.06-1.87-.29-2.15-2.14-2.7,1.94-.06,2.23-.28,2.8-2.07.06,1.87.29,2.15,2.14,2.7Z"/><path class="cls-1" d="m21.47,20.54c-1.94.07-2.23.28-2.81,2.07-.05-1.87-.28-2.15-2.14-2.7,1.94-.06,2.24-.28,2.81-2.07.06,1.87.28,2.14,2.14,2.69Z"/><path class="cls-1" d="m29.33,18.67c-.2-.34-.55-.55-.92-.74-1.07-.56-2.25-.91-3.45-1.23-.73-.2-1.46-.4-2.2-.6-.03-.02-.07-.02-.11-.03-.15-.04-.22-.12-.25-.25-.04-.22-.07-.45-.15-.66-.05-.08-.07-.12-.06-.19-.09-.21-.22-.42-.38-.59-.09-.11-.51-.42-.45-.53.26-.45.89-.65,1.15-1.09.12-.22.11-.41.06-.63-.39-1.9-1.84-2.67-2.88-3.74-.49-.45-1.76-.92-1.96-1.59-.09-.46-.18-.96-.06-1.74.09-.61.64-.99,1.3-1.26,1.79-.57,4.45,2.07,4.49,5.32.23-1.34.29-2.61-.17-3.68-.14-.3-.32-.59-.52-.87-.18-.25-.38-.49-.58-.73-.21-.25-.45-.48-.69-.69-.63-.51-1.4-.86-2.34-1-1.05-.17-2.03-.09-2.87.35-.19.1-.37.22-.54.36-.89.72-1.62,1.54-2,2.55-.39,1.01-.35,1.52-.75,2.53-.04.06,0,.15.02.22.27.48.55.94.82,1.43.04.06.05.17,0,.23-1.4.77-2.62,1.81-3.72,3.04-.52.34-.53.24-.33.62,0,.03.03.05.03.06t0,0s0,.05.03.09c.09.18.15.39.17.58.02.22-.08.29-.37.28-1.05,0-2.11-.02-3.17,0-1.05.02-2.1.1-3.09.37-.07.02-.13.04-.19.06-.15.06-.29.13-.42.21-.19.12-.22.35-.08.51.11.12.23.22.37.32.02.02.05.05.08.05,0,0,0,0,0,0,.69.42,2.24.97,2.24.97.23.07.47.15.72.22.2.05.41.12.62.17-.18.65-.63,2.08-.9,2.71-.31.7.15,1.47.69,1.45.75-.03,1.25-.8.52-1.66-.65-.77-.16-1.96.09-2.39.06.02.13.04.2.05.5.13,1.03.26,1.58.39-.15,1.36.12,6.75.24,6.74,0,.13.17.2.28.12l.43-.33c.1-.08.27-.05.32.07l1.05,2.31c.17.36.76.36.91,0,.07-.17.24-.26.4-.28.22,0,.45.1.52.32l.91,2.91c.05.16.29.18.37.05l1.71-2.91c.11-.18.3-.28.49-.27.19,0,.38.1.49.29.18.35.67.4.92.09l1.51-1.87c.09-.12.3-.08.35.05.05.23.13.5.22.78.05.02.1.02.15-.02.08,0,2.2-5.39,2.34-6.46.36,0,.72,0,1.09,0,.08,0,.15,0,.22,0-.22,1.37-.62,3.61-1.15,4.94-.45,1.13-.03,1.49.18,1.6.3.17.62.19.89.06.25-.12.86-.41.17-1.4-.61-.81-.08-3.57.3-5.22.22,0,.42,0,.64,0,.37,0,.74-.02,1.11-.03.11,1.01.16,2.26-.07,3.16-.18.67-.11,1.04.12,1.28.35.36,1.03.32,1.33-.1.18-.25.3-.49-.38-1.25-.63-.72-.71-2.03-.65-3.11.33-.02.66-.03.99-.06.33-.02.66-.05.99-.08.41-.07.75-.18.94-.39.06-.08.08-.16.03-.25Zm-17.2,3.2c-.06-1.87-.29-2.15-2.14-2.7,1.94-.06,2.23-.28,2.8-2.07.06,1.87.29,2.15,2.14,2.7-1.94.06-2.23.28-2.8,2.07Zm6.54.74c-.05-1.87-.28-2.15-2.14-2.7,1.94-.06,2.24-.28,2.81-2.07.06,1.87.28,2.14,2.14,2.69-1.94.07-2.23.28-2.81,2.07Z"/><path class="cls-2" d="m19.34,17.85c-.57,1.79-.86,2-2.81,2.07,1.86.55,2.08.82,2.14,2.7.58-1.8.86-2,2.81-2.07-1.86-.55-2.07-.82-2.14-2.69Z"/><path class="cls-2" d="m12.79,17.11c-.57,1.79-.86,2-2.8,2.07,1.85.55,2.07.82,2.14,2.7.57-1.79.86-2,2.8-2.07-1.85-.55-2.07-.82-2.14-2.7Z"/></svg>