<?xml version="1.0" encoding="UTF-8"?><svg id="logo" xmlns="http://www.w3.org/2000/svg" viewBox="0 0 200 96.32"><defs><style>.cls-1{fill:#f3f3f3;}.cls-1,.cls-2,.cls-3{stroke-width:0px;}.cls-2{fill:#fbb03e;}.cls-3{fill:#ebeced;}</style></defs><path class="cls-2" d="m176.7,50.14v18.43c0,2.66-1.43,4.12-4.13,4.12h-21.09v-26.61h21.13c2.92,0,4.09,1.3,4.09,4.06Z"/><path class="cls-2" d="m121.69,72.71h-10.65v-3.23h-3.99v3.23h-10.55v-22.54c0-2.3,1.23-4.09,4.09-4.09h16.94c2.56,0,4.16,1.76,4.16,4.09v22.54Zm-10.77-8.25l.15-10.16h-3.99l-.15,10.16h3.99Z"/><path class="cls-2" d="m94.18,72.7h-28.17l5.31-8.26,7.19-10.12h-10.82l3.63-8.26h22.87v8.26l-7.47,10.12h7.47v8.26Z"/><polygon class="cls-2" points="62.76 59.39 69.95 59.39 51.8 86.91 56.67 64.47 51.8 64.47 51.8 46.07 69 46.07 62.76 59.39"/><path class="cls-2" d="m149.16,72.7h-10.59v-3.23h-3.99v3.23h-10.59v-26.63h21.07c2.56,0,4.09,1.33,4.09,4.09v6.62c0,2.6-1.23,3.66-2.96,4.09v.07c1.66.2,2.96,1.76,2.96,3.5v8.26Zm-10.59-8.23v-10.16h-3.99v10.16h3.99Z"/><path class="cls-2" d="m49.5,64.44l-4.36,8.26h-6.89v-3.23h-3.99v3.23h-6.52l-4.43-8.23v-18.4h9.05v8.22l4.03-6.53,4.09,6.53v-8.22h9.02v18.37Z"/><path class="cls-1" d="m154.87,26.79c-.07-.1-.1-.17-.08-.24.01.04.03.07.04.1.01.05.03.09.04.14Z"/><path class="cls-1" d="m151.99,26.28c-.07-.1-.1-.17-.08-.24.01.04.03.07.04.1.01.05.03.09.04.14Z"/><path class="cls-2" d="m40.5,27.27h-6.55v3.16h6.55v9.75c0,1.93-1.13,3.25-3.28,3.25h-13.87v-4.99h6.55v-3.16h-6.55s0-9.74,0-9.74c0-2.27,1.22-3.25,3.25-3.25h13.9v4.99Z"/><path class="cls-2" d="m62.28,28.84h-3.09v14.59h-13.13v-14.59h-3.12v-6.55h19.34v6.55Z"/><path class="cls-2" d="m77.85,43.42h-13.13v-21.14h13.13v21.14Z"/><path class="cls-2" d="m96.75,43.42h-13.21c-1.74,0-3.25-1.14-3.25-3.25v-14.64c0-2.11,1.45-3.25,3.25-3.25h13.21v6.55h-3.46v8.03h3.46v6.55Z"/><path class="cls-2" d="m119.16,43.42h-8.4v-2.57h-3.17v2.57s-8.4,0-8.4,0v-21.14h8.4v6.55h3.17v-6.55h8.4v6.56l-3.35,4.03,3.35,3.98v6.56Z"/><path class="cls-2" d="m140.99,28.85l-3.28,8.01v6.56h-12.82v-6.56l-3.3-7.99v-6.59h8.12v6.56h3.16v-6.56h8.12v6.56Z"/><path class="cls-3" d="m159.71,57.64v-5.48c0-.72.47-1.35,1.35-1.35h6.07c.88,0,1.35.6,1.35,1.35v5.48h-2.48v-1.43h-3.83v1.43h-2.45Z"/><path class="cls-3" d="m161.06,67.95c-.84,0-1.35-.47-1.35-1.35v-5.59c0-1,.45-1.35,1.35-1.35h6.07c.88,0,1.35.48,1.35,1.35v5.59c0,.83-.31,1.35-1.35,1.35h-6.07Zm1.11-3.48h3.84v-1.31h-3.84v1.31Z"/><path class="cls-2" d="m158.37,31.54c-2.43.08-2.78.35-3.49,2.58-.08-2.34-.36-2.68-2.67-3.37,2.43-.08,2.78-.35,3.49-2.58.08,2.34.36,2.68,2.67,3.37Z"/><path class="cls-2" d="m166.55,32.46c-2.43.09-2.78.35-3.5,2.59-.07-2.34-.35-2.69-2.67-3.37,2.43-.08,2.79-.35,3.5-2.58.08,2.34.35,2.68,2.67,3.36Z"/><path class="cls-2" d="m176.35,30.13c-.25-.42-.69-.68-1.15-.92-1.34-.7-2.81-1.14-4.3-1.54-.91-.25-1.83-.5-2.75-.75-.04-.02-.09-.03-.13-.04-.19-.05-.28-.14-.31-.31-.05-.28-.09-.57-.18-.83-.07-.1-.09-.14-.08-.23-.12-.26-.28-.52-.47-.74-.12-.13-.64-.53-.56-.66.33-.56,1.12-.81,1.43-1.36.15-.27.13-.51.08-.79-.49-2.37-2.3-3.34-3.59-4.67-.61-.57-2.19-1.15-2.44-1.98-.12-.58-.22-1.2-.08-2.17.12-.76.8-1.23,1.63-1.58,2.23-.71,5.55,2.58,5.61,6.64.29-1.67.36-3.26-.21-4.59-.17-.38-.39-.73-.64-1.09-.23-.31-.47-.61-.72-.91-.26-.32-.56-.6-.87-.86-.79-.64-1.75-1.07-2.92-1.25-1.31-.21-2.54-.12-3.58.43-.23.13-.46.27-.67.45-1.11.9-2.02,1.92-2.49,3.19-.48,1.26-.44,1.9-.93,3.16-.05.08,0,.19.03.28.34.6.69,1.17,1.02,1.78.05.08.06.21,0,.29-1.74.96-3.27,2.26-4.65,3.8-.64.42-.66.3-.41.77,0,.04.04.06.04.08t0,0s0,.06.04.12c.12.23.19.48.21.72.02.28-.11.36-.46.35-1.31,0-2.64-.02-3.96,0-1.31.02-2.62.13-3.86.46-.09.02-.16.05-.24.08-.18.08-.37.16-.53.26-.24.14-.28.43-.11.64.13.14.29.28.46.39.03.03.06.06.1.07,0,0,0,0,0,0,.86.53,2.79,1.21,2.79,1.21.29.09.59.19.89.28.25.07.51.14.78.21-.22.81-.79,2.6-1.13,3.39-.38.88.19,1.84.86,1.81.93-.04,1.56-1,.65-2.08-.81-.96-.2-2.44.12-2.98.08.02.16.05.25.07.63.16,1.28.33,1.97.48-.19,1.69.14,8.43.3,8.42,0,.16.21.25.35.14l.54-.41c.13-.11.34-.06.39.09l1.31,2.89c.21.45.95.45,1.14,0,.09-.21.3-.33.5-.35.28,0,.56.13.65.4l1.14,3.63c.06.2.36.23.46.06l2.14-3.64c.13-.23.38-.35.61-.34.23,0,.47.13.61.37.23.44.84.5,1.15.12l1.89-2.34c.12-.14.38-.11.44.07.06.29.16.63.28.97.07.03.13.02.18-.03.11,0,2.74-6.73,2.93-8.06.45,0,.89,0,1.36,0,.1,0,.18,0,.28,0-.27,1.71-.77,4.5-1.43,6.17-.57,1.41-.04,1.86.23,2,.38.21.77.24,1.12.08.31-.14,1.08-.51.21-1.74-.76-1.01-.11-4.46.38-6.52.27,0,.53,0,.8,0,.46,0,.92-.02,1.39-.04.13,1.26.2,2.82-.09,3.95-.23.84-.13,1.3.15,1.6.44.45,1.28.39,1.66-.13.23-.32.38-.61-.47-1.56-.79-.9-.89-2.54-.81-3.88.41-.03.83-.04,1.24-.08.41-.03.83-.06,1.24-.11.51-.09.93-.23,1.17-.49.08-.1.1-.2.04-.32Zm-21.48,3.99c-.08-2.34-.36-2.68-2.67-3.37,2.43-.08,2.78-.35,3.49-2.58.08,2.34.36,2.68,2.67,3.37-2.43.08-2.78.35-3.49,2.58Zm8.17.92c-.07-2.34-.35-2.69-2.67-3.37,2.43-.08,2.79-.35,3.5-2.58.08,2.34.35,2.68,2.67,3.36-2.43.09-2.78.35-3.5,2.59Z"/><path class="cls-3" d="m163.88,29.1c-.71,2.23-1.08,2.5-3.5,2.58,2.32.68,2.6,1.03,2.67,3.37.72-2.24,1.08-2.5,3.5-2.59-2.32-.68-2.59-1.02-2.67-3.36Z"/><path class="cls-3" d="m155.7,28.17c-.71,2.23-1.07,2.5-3.49,2.58,2.31.68,2.59,1.03,2.67,3.37.71-2.23,1.07-2.5,3.49-2.58-2.31-.68-2.59-1.03-2.67-3.37Z"/></svg>