<?xml version="1.0" encoding="utf-8"?>
<!-- Generator: Adobe Illustrator 28.1.0, SVG Export Plug-In . SVG Version: 6.00 Build 0)  -->
<svg version="1.1" id="Layer_1" xmlns="http://www.w3.org/2000/svg" xmlns:xlink="http://www.w3.org/1999/xlink" x="0px" y="0px"
	 viewBox="0 0 91.66 46.32" style="enable-background:new 0 0 91.66 46.32;" xml:space="preserve">
<style type="text/css">
	.st0{fill:#FAAF40;}
	.st1{fill:#EAEAEC;}
</style>
<g>
	<g>
		<g>
			<g>
				<path class="st0" d="M91.66,24.35v11.01c0,1.59-0.85,2.46-2.47,2.46H76.6v-15.9h12.62C90.97,21.92,91.66,22.7,91.66,24.35z"/>
				<path class="st0" d="M58.79,37.83h-6.37v-1.93h-2.39v1.93h-6.31V24.37c0-1.37,0.74-2.45,2.45-2.45H56.3
					c1.53,0,2.49,1.05,2.49,2.45V37.83z M52.36,32.91l0.09-6.07h-2.39l-0.09,6.07H52.36z"/>
				<path class="st0" d="M42.35,37.83l-18.21-0.01l7.47-10.98l-5.09,0.01l2.17-4.93h13.67v4.93l-4.46,6.05h4.46V37.83z"/>
				<polygon class="st0" points="24.38,28.12 28.67,28.12 17.03,46.32 19.94,32.91 17.03,32.91 17.03,21.92 27.31,21.92 				"/>
				<path class="st0" d="M75.21,37.83h-6.33V35.9H66.5v1.93h-6.33V21.92h12.59c1.53,0,2.45,0.8,2.45,2.45v3.96
					c0,1.55-0.74,2.19-1.77,2.45v0.04c0.99,0.12,1.77,1.05,1.77,2.09V37.83z M68.88,32.91v-6.07H66.5v6.07H68.88z"/>
				<path class="st0" d="M15.65,32.89l-2.61,4.94H8.93V35.9H6.54v1.93h-3.9L0,32.91v-11h5.41v4.91l2.41-3.9l2.45,3.9v-4.91h5.39
					V32.89z"/>
			</g>
		</g>
		<g>
			<g>
				<path class="st1" d="M81.51,28.83v-3.27c0-0.43,0.28-0.8,0.8-0.8h3.63c0.52,0,0.8,0.36,0.8,0.8v3.27h-1.48v-0.86h-2.29v0.86
					H81.51z"/>
				<path class="st1" d="M82.32,34.99c-0.5,0-0.8-0.28-0.8-0.8v-3.34c0-0.6,0.27-0.8,0.8-0.8h3.63c0.52,0,0.8,0.29,0.8,0.8v3.34
					c0,0.5-0.18,0.8-0.8,0.8H82.32z M82.98,32.91h2.3v-0.79h-2.3V32.91z"/>
			</g>
		</g>
	</g>
	<g>
		<g>
			<g>
				<path class="st0" d="M10.28,10.68H6.37v1.89h3.91v5.82c0,1.15-0.68,1.94-1.96,1.94H0.03v-2.98l3.91,0v-1.89l-3.91,0V9.65
					c0-1.36,0.73-1.94,1.94-1.94h8.3V10.68z"/>
				<path class="st0" d="M23.29,11.62h-1.85v8.72H13.6v-8.72h-1.86V7.7h11.56V11.62z"/>
				<path class="st0" d="M32.6,20.34h-7.85V7.7h7.85V20.34z"/>
				<path class="st0" d="M43.89,20.34h-7.9c-1.04,0-1.94-0.68-1.94-1.94V9.65c0-1.26,0.87-1.94,1.94-1.94h7.9v3.92h-2.07v4.8h2.07
					V20.34z"/>
				<path class="st0" d="M57.28,20.34h-5.02l0-1.54h-1.89l0,1.54h-5.02V7.7h5.02v3.91h1.89V7.7h5.02v3.92l-2,2.41l2,2.38V20.34z"/>
				<path class="st0" d="M70.33,11.63l-1.96,4.79v3.92h-7.66v-3.92l-1.97-4.77V7.7h4.85v3.92h1.89V7.7h4.85V11.63z"/>
			</g>
		</g>
		<g>
			<g>
				<g>
					<path class="st0" d="M80.71,13.24c-1.45,0.05-1.66,0.21-2.09,1.54c-0.05-1.4-0.21-1.6-1.59-2.01c1.45-0.05,1.66-0.21,2.09-1.54
						C79.16,12.62,79.33,12.83,80.71,13.24z"/>
					<path class="st0" d="M85.6,13.78c-1.45,0.05-1.66,0.21-2.09,1.55c-0.04-1.4-0.21-1.6-1.59-2.01c1.45-0.05,1.67-0.21,2.09-1.54
						C84.05,13.17,84.21,13.37,85.6,13.78z"/>
					<path class="st0" d="M91.46,12.39c-0.15-0.25-0.41-0.41-0.69-0.55c-0.8-0.42-1.68-0.68-2.57-0.92
						c-0.55-0.15-1.09-0.3-1.64-0.45c-0.02-0.01-0.05-0.02-0.08-0.02c-0.12-0.03-0.17-0.09-0.18-0.18
						c-0.03-0.17-0.05-0.34-0.11-0.49c-0.04-0.06-0.05-0.09-0.05-0.14c-0.07-0.16-0.17-0.31-0.28-0.44
						c-0.07-0.08-0.38-0.32-0.33-0.4c0.2-0.33,0.67-0.48,0.86-0.81c0.09-0.16,0.08-0.3,0.05-0.47c-0.29-1.41-1.37-2-2.14-2.79
						c-0.36-0.34-1.31-0.69-1.46-1.18c-0.07-0.35-0.13-0.72-0.05-1.3c0.07-0.45,0.48-0.74,0.97-0.94c1.33-0.43,3.32,1.54,3.35,3.97
						c0.17-1,0.21-1.95-0.13-2.74c-0.1-0.22-0.24-0.44-0.39-0.65c-0.14-0.18-0.28-0.36-0.43-0.55c-0.16-0.19-0.33-0.36-0.52-0.51
						c-0.47-0.38-1.05-0.64-1.74-0.75c-0.78-0.13-1.52-0.07-2.14,0.26c-0.14,0.07-0.28,0.16-0.4,0.27c-0.66,0.54-1.21,1.15-1.49,1.9
						c-0.29,0.75-0.26,1.13-0.56,1.89c-0.03,0.05-0.01,0.12,0.02,0.17c0.2,0.36,0.41,0.7,0.61,1.06c0.03,0.05,0.03,0.13,0,0.17
						c-1.04,0.58-1.96,1.35-2.78,2.27c-0.39,0.25-0.4,0.18-0.25,0.46c0.01,0.02,0.02,0.03,0.02,0.05c0.01,0,0.01,0,0.01,0.01
						c0,0.01,0.01,0.03,0.02,0.07c0.07,0.14,0.12,0.29,0.13,0.43c0.01,0.17-0.06,0.21-0.28,0.21c-0.78,0-1.58-0.01-2.36,0.01
						c-0.78,0.01-1.56,0.07-2.31,0.28c-0.05,0.01-0.1,0.03-0.14,0.05c-0.11,0.05-0.22,0.1-0.32,0.16c-0.14,0.09-0.17,0.26-0.06,0.38
						c0.08,0.09,0.17,0.17,0.28,0.24c0.02,0.02,0.03,0.03,0.06,0.04c0,0,0,0.01,0.01,0.01c0.51,0.32,1.67,0.72,1.67,0.72
						c0.17,0.05,0.35,0.12,0.53,0.17c0.15,0.04,0.3,0.09,0.47,0.13c-0.13,0.48-0.47,1.55-0.67,2.02c-0.23,0.52,0.11,1.1,0.51,1.08
						c0.56-0.02,0.93-0.6,0.39-1.24c-0.48-0.58-0.12-1.46,0.07-1.78c0.05,0.01,0.1,0.03,0.15,0.04c0.37,0.1,0.76,0.2,1.18,0.29
						c-0.12,1.01,0.09,5.04,0.18,5.03c0,0.1,0.13,0.15,0.21,0.09l0.32-0.25c0.07-0.06,0.2-0.03,0.24,0.05l0.78,1.73
						c0.13,0.27,0.57,0.27,0.68-0.01c0.05-0.13,0.18-0.2,0.3-0.21c0.17-0.01,0.33,0.07,0.39,0.24l0.68,2.17
						c0.03,0.12,0.21,0.14,0.28,0.03l1.28-2.17c0.08-0.14,0.22-0.21,0.36-0.2c0.14,0,0.28,0.07,0.36,0.22
						c0.14,0.26,0.5,0.3,0.69,0.07l1.13-1.4c0.07-0.09,0.22-0.06,0.26,0.04c0.03,0.17,0.1,0.37,0.17,0.58
						c0.04,0.02,0.07,0.01,0.11-0.02c0.06,0,1.64-4.02,1.75-4.82c0.27,0.01,0.53,0.01,0.81,0.01c0.06,0,0.11,0.01,0.17,0
						c-0.16,1.02-0.46,2.69-0.86,3.69c-0.34,0.84-0.02,1.11,0.14,1.2c0.22,0.13,0.46,0.14,0.67,0.05c0.18-0.09,0.64-0.3,0.13-1.04
						c-0.45-0.6-0.06-2.66,0.22-3.89c0.16,0.01,0.32,0.01,0.48-0.01c0.28,0,0.55-0.01,0.83-0.02c0.08,0.75,0.12,1.68-0.05,2.36
						c-0.14,0.5-0.08,0.78,0.09,0.95c0.26,0.27,0.76,0.24,0.99-0.07c0.14-0.19,0.22-0.36-0.28-0.93c-0.47-0.54-0.53-1.52-0.48-2.32
						c0.25-0.02,0.49-0.02,0.74-0.05c0.25-0.02,0.49-0.03,0.74-0.06c0.3-0.05,0.56-0.14,0.7-0.29
						C91.48,12.52,91.49,12.46,91.46,12.39z M78.62,14.78c-0.05-1.4-0.21-1.6-1.59-2.01c1.45-0.05,1.66-0.21,2.09-1.54
						c0.05,1.4,0.21,1.6,1.59,2.01C79.26,13.28,79.05,13.44,78.62,14.78z M83.5,15.33c-0.04-1.4-0.21-1.6-1.59-2.01
						c1.45-0.05,1.67-0.21,2.09-1.54c0.05,1.4,0.21,1.6,1.59,2.01C84.15,13.83,83.93,13.99,83.5,15.33z"/>
				</g>
			</g>
			<g>
				<path class="st1" d="M84,11.78c-0.43,1.33-0.64,1.5-2.09,1.54c1.39,0.41,1.55,0.62,1.59,2.01c0.43-1.34,0.64-1.5,2.09-1.55
					C84.21,13.37,84.05,13.17,84,11.78z"/>
				<path class="st1" d="M79.12,11.22c-0.43,1.33-0.64,1.5-2.09,1.54c1.38,0.41,1.55,0.62,1.59,2.01c0.43-1.33,0.64-1.5,2.09-1.54
					C79.33,12.83,79.16,12.62,79.12,11.22z"/>
			</g>
		</g>
	</g>
</g>
</svg>
